<?xml version="1.0" encoding="utf-8"?>
<!-- Generator: Adobe Illustrator 15.0.0, SVG Export Plug-In . SVG Version: 6.00 Build 0)  -->
<!DOCTYPE svg PUBLIC "-//W3C//DTD SVG 1.1//EN" "http://www.w3.org/Graphics/SVG/1.1/DTD/svg11.dtd">
<svg version="1.1" id="Layer_1" xmlns:sketch="http://www.bohemiancoding.com/sketch/ns"
	 xmlns="http://www.w3.org/2000/svg" xmlns:xlink="http://www.w3.org/1999/xlink" x="0px" y="0px" width="212px" height="135px"
	 viewBox="0 0 212 135" enable-background="new 0 0 212 135" xml:space="preserve">
<title>move_it_final</title>
<desc>Created with Sketch.</desc>
<g id="Welcome" sketch:type="MSPage">
	<g id="move_it_final" transform="translate(1.000000, 1.000000)" sketch:type="MSLayerGroup">
		<g id="Group-125" sketch:type="MSShapeGroup">
			<path id="Fill-1" fill="#FFF101" d="M42.171,45.746c0,0,1.443,8.575,2.975,11.8c1.529,3.226,3.698,6.78,11.232,4.997
				c7.528-1.787,13.906-3.374,15.951-3.479c2.048-0.105,5.829-1.199,8.627,1.72c0,0-3.774-11.925-4.333-13.055
				c-0.562-1.128-2.34-4.219-6.849-3.371c-4.508,0.85-13.15,2.979-18.866,3.596C45.189,48.57,44.611,48.213,42.171,45.746"/>
			<path id="Stroke-3" fill="none" d="M42.171,45.746c0,0,1.443,8.575,2.975,11.8c1.529,3.226,3.698,6.78,11.232,4.997
				c7.528-1.787,13.906-3.374,15.951-3.479c2.048-0.105,5.829-1.199,8.627,1.72c0,0-3.774-11.925-4.333-13.055
				c-0.562-1.128-2.34-4.219-6.849-3.371c-4.508,0.85-13.15,2.979-18.866,3.596C45.189,48.57,44.611,48.213,42.171,45.746
				L42.171,45.746z"/>
			<path id="Fill-5" fill="#FFF101" d="M62.639,16.38c0,0-3.59,7.916-4.123,11.439c-0.534,3.53-0.721,7.699,6.516,10.424
				c7.244,2.73,13.422,4.977,15.177,6.031c1.757,1.06,5.5,2.264,6.194,6.251c0,0,3.528-12.002,3.698-13.248
				c0.172-1.252,0.423-4.806-3.793-6.627c-4.217-1.815-12.568-4.876-17.659-7.564C63.569,20.406,63.286,19.788,62.639,16.38"/>
			<path id="Stroke-7" fill="none" d="M62.639,16.38c0,0-3.59,7.916-4.123,11.439c-0.534,3.53-0.721,7.699,6.516,10.424
				c7.244,2.73,13.422,4.977,15.177,6.031c1.757,1.06,5.5,2.264,6.194,6.251c0,0,3.528-12.002,3.698-13.248
				c0.172-1.252,0.423-4.806-3.793-6.627c-4.217-1.815-12.568-4.876-17.659-7.564C63.569,20.406,63.286,19.788,62.639,16.38
				L62.639,16.38z"/>
			<path id="Fill-9" fill="#FFF101" d="M92.773,0.46c0,0-7.079,5.046-9.309,7.833c-2.232,2.787-4.479,6.293,0.418,12.285
				c4.891,5.99,9.111,11.033,10.1,12.83c0.994,1.796,3.627,4.718,2.227,8.512c0,0,9.068-8.609,9.847-9.608
				c0.772-0.995,2.775-3.944,0.038-7.631c-2.741-3.683-8.43-10.524-11.482-15.399C91.555,4.41,91.625,3.733,92.773,0.46"/>
			<path id="Stroke-11" fill="none" d="M92.773,0.46c0,0-7.079,5.046-9.309,7.833c-2.232,2.787-4.479,6.293,0.418,12.285
				c4.891,5.99,9.111,11.033,10.1,12.83c0.994,1.796,3.627,4.718,2.227,8.512c0,0,9.068-8.609,9.847-9.608
				c0.772-0.995,2.775-3.944,0.038-7.631c-2.741-3.683-8.43-10.524-11.482-15.399C91.555,4.41,91.625,3.733,92.773,0.46L92.773,0.46
				z"/>
			<path id="Fill-13" fill="#FFF101" d="M127.773,2.288c0,0-8.666,0.664-12.013,1.896c-3.348,1.24-7.086,3.08-5.987,10.742
				c1.102,7.661,2.11,14.153,2.035,16.203c-0.08,2.047,0.668,5.908-2.49,8.44c0,0,12.217-2.693,13.386-3.151
				c1.178-0.446,4.42-1.943,3.978-6.517c-0.442-4.565-1.783-13.362-1.886-19.112C124.695,5.041,125.105,4.498,127.773,2.288"/>
			<path id="Stroke-15" fill="none" d="M127.773,2.288c0,0-8.666,0.664-12.013,1.896c-3.348,1.24-7.086,3.08-5.987,10.742
				c1.102,7.661,2.11,14.153,2.035,16.203c-0.08,2.047,0.668,5.908-2.49,8.44c0,0,12.217-2.693,13.386-3.151
				c1.178-0.446,4.42-1.943,3.978-6.517c-0.442-4.565-1.783-13.362-1.886-19.112C124.695,5.041,125.105,4.498,127.773,2.288
				L127.773,2.288z"/>
			<path id="Fill-17" fill="#FFF101" d="M155.689,20.858c0,0-7.965-3.488-11.498-3.97c-3.537-0.489-7.705-0.621-10.334,6.659
				c-2.637,7.274-4.799,13.471-5.834,15.251c-1.033,1.771-2.186,5.526-6.166,6.27c0,0,12.049,3.372,13.297,3.523
				c1.254,0.154,4.812,0.364,6.569-3.873c1.765-4.238,4.716-12.634,7.335-17.758C151.673,21.84,152.29,21.554,155.689,20.858"/>
			<path id="Stroke-19" fill="none" d="M155.689,20.858c0,0-7.965-3.488-11.498-3.97c-3.537-0.489-7.705-0.621-10.334,6.659
				c-2.637,7.274-4.799,13.471-5.834,15.251c-1.033,1.771-2.186,5.526-6.166,6.27c0,0,12.049,3.372,13.297,3.523
				c1.254,0.154,4.812,0.364,6.569-3.873c1.765-4.238,4.716-12.634,7.335-17.758C151.673,21.84,152.29,21.554,155.689,20.858
				L155.689,20.858z"/>
			<path id="Fill-21" fill="#FFF101" d="M169.382,51.248c0,0-5.597-6.662-8.55-8.653c-2.957-2.004-6.635-3.969-12.215,1.389
				c-5.584,5.363-10.27,9.968-11.982,11.102c-1.707,1.126-4.411,3.99-8.307,2.892c0,0,9.311,8.353,10.363,9.045
				c1.055,0.696,4.154,2.455,7.609-0.57c3.453-3.024,9.82-9.238,14.439-12.671C165.346,50.348,166.023,50.357,169.382,51.248"/>
			<path id="Stroke-23" fill="none" d="M169.382,51.248c0,0-5.597-6.662-8.55-8.653c-2.957-2.004-6.635-3.969-12.215,1.389
				c-5.584,5.363-10.27,9.968-11.982,11.102c-1.707,1.126-4.411,3.99-8.307,2.892c0,0,9.311,8.353,10.363,9.045
				c1.055,0.696,4.154,2.455,7.609-0.57c3.453-3.024,9.82-9.238,14.439-12.671C165.346,50.348,166.023,50.357,169.382,51.248
				L169.382,51.248z"/>
			<path id="Fill-25" fill="#9EC83C" d="M209.938,92.48c0,0,0.231-11.091,0-14.858c-0.211-3.312-2.388-7.161-9.572-7.015
				c-6.555,0.127-58.463,0.426-60.37,0.426c-5.308,0-8.332,0.281-10.38-2.871c0,0,3.22,11.937,3.938,14.736
				c0.762,2.967,2.902,4.164,7.169,4.181c4.263,0.015,56.373-0.196,61.696,0.245C207.738,87.757,208.287,89.497,209.938,92.48"/>
			<path id="Stroke-27" fill="none" d="M209.938,92.48c0,0,0.231-11.091,0-14.858c-0.211-3.312-2.388-7.161-9.572-7.015
				c-6.555,0.127-58.463,0.426-60.37,0.426c-5.308,0-8.332,0.281-10.38-2.871c0,0,3.22,11.937,3.938,14.736
				c0.762,2.967,2.902,4.164,7.169,4.181c4.263,0.015,56.373-0.196,61.696,0.245C207.738,87.757,208.287,89.497,209.938,92.48
				L209.938,92.48z"/>
			<path id="Fill-29" fill="#9EC83C" d="M82.465,74.613c0,0-5.027-4.975-8.265-8.303c-1.93-1.984-3.731-3.936-6.889-3.289
				c-2.782,0.566-9.705,7.375-12.076,7.375c-19.706,0-46.25-0.119-47.75-0.119c-3.586,0-4.944-0.444-7.207-5.584v15.016
				c0,7.064,2.501,7.328,8.171,7.328c3.226,0,32.924,0.025,49.936,0.025c3.889,0,5.517-0.908,11.593-7.267
				C75.889,73.607,77.476,72.299,82.465,74.613"/>
			<path id="Stroke-31" fill="none" d="M82.465,74.613c0,0-5.027-4.975-8.265-8.303c-1.93-1.984-3.731-3.936-6.889-3.289
				c-2.782,0.566-9.705,7.375-12.076,7.375c-19.706,0-46.25-0.119-47.75-0.119c-3.586,0-4.944-0.444-7.207-5.584v15.016
				c0,7.064,2.501,7.328,8.171,7.328c3.226,0,32.924,0.025,49.936,0.025c3.889,0,5.517-0.908,11.593-7.267
				C75.889,73.607,77.476,72.299,82.465,74.613L82.465,74.613z"/>
			<path id="Fill-33" fill="#4DAF46" d="M90.5,86.319c0,0-4.232-1.849-8.149-3.315c-3.219-1.201-6.351-2.527-8.886-1.503
				c-3.455,1.397-4.325,9.874-10.41,9.874c-19.702,0-53.665-0.118-55.162-0.118c-3.587,0-6.105-0.276-7.616-3.672v12.697
				c0,7.065,2.503,6.853,8.173,6.872c4.57,0.017,49.048,0.224,63.553,0.027c5.497-0.074,7.322-1,9.337-7.959
				C84.266,89.132,85.406,85.16,90.5,86.319"/>
			<path id="Stroke-35" fill="none" d="M90.5,86.319c0,0-4.232-1.849-8.149-3.315c-3.219-1.201-6.351-2.527-8.886-1.503
				c-3.455,1.397-4.325,9.874-10.41,9.874c-19.702,0-53.665-0.118-55.162-0.118c-3.587,0-6.105-0.276-7.616-3.672v12.697
				c0,7.065,2.503,6.853,8.173,6.872c4.57,0.017,49.048,0.224,63.553,0.027c5.497-0.074,7.322-1,9.337-7.959
				C84.266,89.132,85.406,85.16,90.5,86.319L90.5,86.319z"/>
			<path id="Fill-37" fill="#00A3DB" d="M102.286,90.98c0,0-3.507,0.275-7.85,0.906c-4.139,0.601-6.833,1.382-8.539,3.41
				c-3.431,4.088,2.947,16.655-5.032,16.655c-19.739,0-71.314-0.054-72.814-0.042c-3.592,0.037-6.109-0.291-7.587-3.842
				c0,0-0.083,7.407-0.126,12.418c-0.068,7.42,2.44,7.178,8.117,7.141c4.579-0.026,69.241,0.209,83.773-0.138
				c5.503-0.131,10.126,0.531,10.757-7.453C103.854,109.026,92.472,93.996,102.286,90.98"/>
			<path id="Stroke-39" fill="none" d="M102.286,90.98c0,0-3.507,0.275-7.85,0.906c-4.139,0.601-6.833,1.382-8.539,3.41
				c-3.431,4.088,2.947,16.655-5.032,16.655c-19.739,0-71.314-0.054-72.814-0.042c-3.592,0.037-6.109-0.291-7.587-3.842
				c0,0-0.083,7.407-0.126,12.418c-0.068,7.42,2.44,7.178,8.117,7.141c4.579-0.026,69.241,0.209,83.773-0.138
				c5.503-0.131,10.126,0.531,10.757-7.453C103.854,109.026,92.472,93.996,102.286,90.98L102.286,90.98z"/>
			<path id="Fill-41" fill="#4DAF46" d="M209.988,112.357c0,0-0.052-9.252-0.052-12.613c0-3.353-2.035-8.283-9.156-8.517
				c-7.185-0.229-45.626,0.195-57.321-0.085c-15.631-0.374-18.396-3.859-18.664-10.32c0,0-2.853,7.205-4.432,12.135
				c-0.803,2.507,0.02,5.063,1.842,7.164c2.426,2.795,7.531,6.135,19.969,6.908c5.67,0.353,54.435-0.287,59.76,0.156
				C207.254,107.613,208.196,109.682,209.988,112.357"/>
			<path id="Stroke-43" fill="none" d="M209.988,112.357c0,0-0.052-9.252-0.052-12.613c0-3.353-2.035-8.283-9.156-8.517
				c-7.185-0.229-45.626,0.195-57.321-0.085c-15.631-0.374-18.396-3.859-18.664-10.32c0,0-2.853,7.205-4.432,12.135
				c-0.803,2.507,0.02,5.063,1.842,7.164c2.426,2.795,7.531,6.135,19.969,6.908c5.67,0.353,54.435-0.287,59.76,0.156
				C207.254,107.613,208.196,109.682,209.988,112.357L209.988,112.357z"/>
			<path id="Fill-45" fill="#00A3DB" d="M209.938,133.255c0,0,0.105-9.437,0-13.558c-0.093-3.354-2.466-7.885-9.897-8.362
				c-7.169-0.464-61.58,0.508-66.554-0.558c-7.676-1.645-12.635-5.668-18.48-14.991c-2.202-3.515-2.098-4.863-1.098-6.655
				c0,0-5.781,4.064-10.332,10.218c-2.267,3.067,0.505,7.47,1.78,9.356c4.931,7.294,8.688,11.305,12.07,15.212
				c3.936,4.551,5.21,3.425,11.663,3.866c5.672,0.387,66.996-0.078,72.315,0.363C206.729,128.579,208.137,130.579,209.938,133.255"
				/>
			<path id="Stroke-47" fill="none" d="M209.938,133.255c0,0,0.105-9.437,0-13.558c-0.093-3.354-2.466-7.885-9.897-8.362
				c-7.169-0.464-61.58,0.508-66.554-0.558c-7.676-1.645-12.635-5.668-18.48-14.991c-2.202-3.515-2.098-4.863-1.098-6.655
				c0,0-5.781,4.064-10.332,10.218c-2.267,3.067,0.505,7.47,1.78,9.356c4.931,7.294,8.688,11.305,12.07,15.212
				c3.936,4.551,5.21,3.425,11.663,3.866c5.672,0.387,66.996-0.078,72.315,0.363C206.729,128.579,208.137,130.579,209.938,133.255
				L209.938,133.255z"/>
		</g>
	</g>
</g>
</svg>
