<?xml version="1.0" encoding="UTF-8" standalone="no"?>
<svg width="22px" height="13px" viewBox="0 0 22 13" version="1.1" xmlns="http://www.w3.org/2000/svg" xmlns:xlink="http://www.w3.org/1999/xlink" xmlns:sketch="http://www.bohemiancoding.com/sketch/ns">
    <!-- Generator: Sketch 3.4.2 (15857) - http://www.bohemiancoding.com/sketch -->
    <title>Stroke 148 + Stroke 149</title>
    <desc>Created with Sketch.</desc>
    <defs></defs>
    <g id="Page-1" stroke="none" stroke-width="1" fill="none" fill-rule="evenodd" sketch:type="MSPage">
        <g id="Program-Classes" sketch:type="MSArtboardGroup" transform="translate(-26.000000, -101.000000)" stroke-linecap="round" stroke="#429BFF" stroke-linejoin="round">
            <g id="Sidebar-Copy" sketch:type="MSLayerGroup">
                <g id="Sidebar/Programs" sketch:type="MSShapeGroup">
                    <g id="Nav" transform="translate(0.000000, 62.000000)">
                        <g id="Main" transform="translate(15.000000, 24.000000)">
                            <g id="Rectangle-90-+-Dashboard-+-Stroke-148-+-Stroke-149">
                                <g id="Stroke-148-+-Stroke-149" transform="translate(12.000000, 16.000000)">
                                    <path d="M19.5833333,5.83333333 C19.5833333,5.83333333 15.2933333,11.25 10,11.25 C4.70666667,11.25 0.416666667,5.83333333 0.416666667,5.83333333 C0.416666667,5.83333333 4.70666667,0.416666667 10,0.416666667 C15.2933333,0.416666667 19.5833333,5.83333333 19.5833333,5.83333333 L19.5833333,5.83333333 Z" id="Stroke-148"></path>
                                    <path d="M13.3333333,5.83333333 C13.3333333,7.675 11.8408333,9.16666667 10,9.16666667 C8.15916667,9.16666667 6.66666667,7.675 6.66666667,5.83333333 C6.66666667,3.99166667 8.15916667,2.5 10,2.5 C11.8408333,2.5 13.3333333,3.99166667 13.3333333,5.83333333 L13.3333333,5.83333333 Z" id="Stroke-149"></path>
                                </g>
                            </g>
                        </g>
                    </g>
                </g>
            </g>
        </g>
    </g>
</svg>