<?xml version="1.0" encoding="UTF-8" standalone="no"?>
<svg width="22px" height="18px" viewBox="0 0 22 18" version="1.1" xmlns="http://www.w3.org/2000/svg" xmlns:xlink="http://www.w3.org/1999/xlink" xmlns:sketch="http://www.bohemiancoding.com/sketch/ns">
    <!-- Generator: Sketch 3.4.2 (15857) - http://www.bohemiancoding.com/sketch -->
    <title>Stroke 524 + Stroke 525 Copy 2</title>
    <desc>Created with Sketch.</desc>
    <defs></defs>
    <g id="Page-1" stroke="none" stroke-width="1" fill="none" fill-rule="evenodd" sketch:type="MSPage">
        <g id="Program-Classes" sketch:type="MSArtboardGroup" transform="translate(-26.000000, -195.000000)" stroke="#429BFF" stroke-linejoin="round">
            <g id="Sidebar-Copy" sketch:type="MSLayerGroup">
                <g id="Sidebar/Programs" sketch:type="MSShapeGroup">
                    <g id="Nav" transform="translate(0.000000, 62.000000)">
                        <g id="Main" transform="translate(15.000000, 24.000000)">
                            <g id="Rectangle-90-+-Dashboard-+-Stroke-148-+-Stroke-149-Copy-9" transform="translate(0.000000, 96.000000)">
                                <g id="Stroke-524-+-Stroke-525-Copy-2" transform="translate(12.000000, 14.000000)">
                                    <path d="M6.66854737,15.5789474 L13.0525474,15.5789474 L13.0525474,11.7894737 C13.0525474,11.3684211 10.5262316,10.1052632 8.42096842,9.26315789 L8.42096842,7.57894737 C8.42096842,7.57894737 9.26307368,7.28421053 9.26307368,5.47368421 C9.84833684,5.47368421 10.1051789,3.78947368 9.29002105,3.78947368 C9.29002105,3.61094737 9.93507368,2.688 9.68412632,1.68421053 C9.26307368,1.29896094e-14 5.05254737,1.29896094e-14 4.63149474,1.68421053 C2.85886316,1.32126316 4.21044211,3.54694737 4.21044211,3.78947368 C3.36833684,3.78947368 3.62433684,5.47368421 4.21044211,5.47368421 C4.21044211,7.28421053 5.05254737,7.57894737 5.05254737,7.57894737 L5.05254737,9.26315789 C2.94728421,10.1052632 0.420968421,11.3684211 0.420968421,11.7894737 L0.420968421,15.5789474 L6.66854737,15.5789474 L6.66854737,15.5789474 Z" id="Stroke-524"></path>
                                    <path d="M15.1578947,15.5789474 L19.7894737,15.5789474 L19.7894737,11.7894737 C19.7894737,11.3684211 17.6842105,10.7789474 16,10.1052632 L16,8.84210526 C16,8.84210526 16.8421053,8.60631579 16.8421053,7.15789474 C17.3111579,7.15789474 17.4938947,5.47368421 16.8421053,5.47368421 C16.8421053,5.33136842 17.5250526,4.57515789 17.2631579,3.78947368 C16.8421053,2.52631579 13.4736842,2.52631579 13.0526316,3.78947368 C11.6336842,3.49894737 12.6315789,5.27915789 12.6315789,5.47368421 C11.9578947,5.47368421 12.1625263,7.15789474 12.6315789,7.15789474 C12.6315789,8.60631579 13.4736842,8.84210526 13.4736842,8.84210526 L13.4736842,9.68421053" id="Stroke-525" stroke-linecap="round"></path>
                                </g>
                            </g>
                        </g>
                    </g>
                </g>
            </g>
        </g>
    </g>
</svg>