<?xml version="1.0" encoding="UTF-8" standalone="no"?>
<svg width="23px" height="23px" viewBox="0 0 23 23" version="1.1" xmlns="http://www.w3.org/2000/svg" xmlns:xlink="http://www.w3.org/1999/xlink" xmlns:sketch="http://www.bohemiancoding.com/sketch/ns">
    <!-- Generator: Sketch 3.4.2 (15857) - http://www.bohemiancoding.com/sketch -->
    <title>Stroke 528 + Stroke 529</title>
    <desc>Created with Sketch.</desc>
    <defs></defs>
    <g id="Page-1" stroke="none" stroke-width="1" fill="none" fill-rule="evenodd" sketch:type="MSPage">
        <g id="Program-Classes" sketch:type="MSArtboardGroup" transform="translate(-26.000000, -145.000000)" stroke="#429BFF" stroke-linejoin="round">
            <g id="Sidebar-Copy" sketch:type="MSLayerGroup">
                <g id="Sidebar/Programs" sketch:type="MSShapeGroup">
                    <g id="Nav" transform="translate(0.000000, 62.000000)">
                        <g id="Main" transform="translate(15.000000, 24.000000)">
                            <g id="Rectangle-90-+-Dashboard-+-Stroke-148-+-Stroke-149-Copy-10" transform="translate(0.000000, 48.000000)">
                                <g id="Stroke-528-+-Stroke-529" transform="translate(12.000000, 12.000000)">
                                    <path d="M8.75,13.125 C8.75,13.125 7.4375,12.6875 7.4375,10.5 C6.71475,10.5 6.71475,8.75 7.4375,8.75 C7.4375,8.456875 6.125,5.25 8.3125,5.6875 C8.75,3.9375 13.5625,3.9375 14,5.6875 C14.303625,6.902 13.5625,8.53475 13.5625,8.75 C14.28525,8.75 14.28525,10.5 13.5625,10.5 C13.5625,12.6875 12.25,13.125 12.25,13.125 L12.25,15.3125 C14.417375,16.125375 16.56375,16.797375 17.66275,17.565625 C19.45475,15.749125 20.5625,13.2545 20.5625,10.5 C20.5625,4.942 16.058,0.4375 10.5,0.4375 C4.942,0.4375 0.4375,4.942 0.4375,10.5 C0.4375,13.258875 1.54875,15.757875 3.346875,17.576125 C4.510625,16.771125 6.804875,16.048375 8.75,15.3125 L8.75,13.125 L8.75,13.125 Z" id="Stroke-528"></path>
                                    <path d="M3.34705,17.5760375 C5.171425,19.4196625 7.701925,20.5624125 10.500175,20.5624125 C13.3028,20.5624125 15.8368,19.4161625 17.66205,17.5655375" id="Stroke-529"></path>
                                </g>
                            </g>
                        </g>
                    </g>
                </g>
            </g>
        </g>
    </g>
</svg>