<?xml version="1.0" encoding="UTF-8" standalone="no"?>
<svg width="30px" height="18px" viewBox="0 0 30 18" version="1.1" xmlns="http://www.w3.org/2000/svg" xmlns:xlink="http://www.w3.org/1999/xlink">
    <!-- Generator: Sketch 3.6.1 (26313) - http://www.bohemiancoding.com/sketch -->
    <title>View all</title>
    <desc>Created with Sketch.</desc>
    <defs></defs>
    <g id="Page-1" stroke="none" stroke-width="1" fill="none" fill-rule="evenodd" stroke-linejoin="round">
        <g id="Patient-Metrics" transform="translate(-1379.000000, -23.000000)">
            <g id="Toolbar/User-Copy-3" transform="translate(244.000000, 0.000000)">
                <g id="View-all" transform="translate(1135.000000, 24.000000)">
                    <path d="M15.6685474,15.5789474 L22.0525474,15.5789474 L22.0525474,11.7894737 C22.0525474,11.3684211 19.5262316,10.1052632 17.4209684,9.26315789 L17.4209684,7.57894737 C17.4209684,7.57894737 18.2630737,7.28421053 18.2630737,5.47368421 C18.8483368,5.47368421 19.1051789,3.78947368 18.2900211,3.78947368 C18.2900211,3.61094737 18.9350737,2.688 18.6841263,1.68421053 C18.2630737,1.29896094e-14 14.0525474,1.29896094e-14 13.6314947,1.68421053 C11.8588632,1.32126316 13.2104421,3.54694737 13.2104421,3.78947368 C12.3683368,3.78947368 12.6243368,5.47368421 13.2104421,5.47368421 C13.2104421,7.28421053 14.0525474,7.57894737 14.0525474,7.57894737 L14.0525474,9.26315789 C11.9472842,10.1052632 9.42096842,11.3684211 9.42096842,11.7894737 L9.42096842,15.5789474 L15.6685474,15.5789474 L15.6685474,15.5789474 Z" id="Stroke-524" stroke="#000000" opacity="0.3"></path>
                    <path d="M24.1578947,15.5789474 L28.7894737,15.5789474 L28.7894737,11.7894737 C28.7894737,11.3684211 26.6842105,10.7789474 25,10.1052632 L25,8.84210526 C25,8.84210526 25.8421053,8.60631579 25.8421053,7.15789474 C26.3111579,7.15789474 26.4938947,5.47368421 25.8421053,5.47368421 C25.8421053,5.33136842 26.5250526,4.57515789 26.2631579,3.78947368 C25.8421053,2.52631579 22.4736842,2.52631579 22.0526316,3.78947368 C20.6336842,3.49894737 21.6315789,5.27915789 21.6315789,5.47368421 C20.9578947,5.47368421 21.1625263,7.15789474 21.6315789,7.15789474 C21.6315789,8.60631579 22.4736842,8.84210526 22.4736842,8.84210526 L22.4736842,9.68421053" id="Stroke-525" stroke="#000000" stroke-linecap="round" opacity="0.3"></path>
                    <path d="M4.94270755,4.42105263 L0.420968421,8.42105263 L4.94270755,12.4210526" id="Stroke-564" stroke="#429BFF" stroke-linecap="round"></path>
                </g>
            </g>
        </g>
    </g>
</svg>